HIERARCHY
ROOT Hips
{
  OFFSET 0 0 0
  CHANNELS 6 Xposition Yposition Zposition Zrotation Yrotation Xrotation
  JOINT LeftThigh
  {
    OFFSET 8.409438 0 -5.917753
    CHANNELS 3 Zrotation Yrotation Xrotation
    JOINT LeftLeg
    {
      OFFSET 0 0 -42.358652
      CHANNELS 3 Zrotation Yrotation Xrotation
      JOINT LeftFoot
      {
        OFFSET 0 0 -39.357303
        CHANNELS 3 Zrotation Yrotation Xrotation
      }
    }
  }
  JOINT RightThigh
  {
    OFFSET -8.409438 0 -5.917753
    CHANNELS 3 Zrotation Yrotation Xrotation
    JOINT RightLeg
    {
      OFFSET 0 0 -42.358652
      CHANNELS 3 Zrotation Yrotation Xrotation
      JOINT RightFoot
      {
        OFFSET 0 0 -39.357303
        CHANNELS 3 Zrotation Yrotation Xrotation
      }
    }
  }
  JOINT SpineLow
  {
    OFFSET 0 0 4.719101
    CHANNELS 3 Zrotation Yrotation Xrotation
    JOINT SpineMid
    {
      OFFSET 0 0 12.899191
      CHANNELS 3 Zrotation Yrotation Xrotation
      JOINT Chest
      {
        OFFSET 0 0 12.899191
        CHANNELS 3 Zrotation Yrotation Xrotation
        JOINT LeftShoulder
        {
          OFFSET 7.550562 1.41573 9.438202
          CHANNELS 3 Zrotation Yrotation Xrotation
          JOINT LeftArm
          {
            OFFSET 9.155056 0 4.247191
            CHANNELS 3 Zrotation Yrotation Xrotation
            JOINT LeftForearm
            {
              OFFSET 0 0 25.771955
              CHANNELS 3 Zrotation Yrotation Xrotation
              JOINT LeftHand
              {
                OFFSET 0 0 25.197169
                CHANNELS 3 Zrotation Yrotation Xrotation
              }
            }
          }
        }
        JOINT RightShoulder
        {
          OFFSET -7.550562 1.41573 9.438202
          CHANNELS 3 Zrotation Yrotation Xrotation
          JOINT RightArm
          {
            OFFSET -9.155056 0 4.247191
            CHANNELS 3 Zrotation Yrotation Xrotation
            JOINT RightForearm
            {
              OFFSET 0 0 -25.771955
              CHANNELS 3 Zrotation Yrotation Xrotation
              JOINT RightHand
              {
                OFFSET 0 0 -25.197169
                CHANNELS 3 Zrotation Yrotation Xrotation
              }
            }
          }
        }
        JOINT Neck
        {
          OFFSET 0 0 15.101124
          CHANNELS 3 Zrotation Yrotation Xrotation
          JOINT Head
          {
            OFFSET 0 0 11.325843
            CHANNELS 3 Zrotation Yrotation Xrotation
            End Site
            {
              OFFSET 0 0 14.157303
            }
          }
        }
      }
    }
  }
}
MOTION
Frames: 13
Frame Time: 0.0
0.0  93.25843  0.0  -0.900387  -17.716405  -90.993891  20.304179  -12.328719  4.044703  -2.072311  -3.286663  1.614198  6.227045  0.269318  2.262436  -16.212784  1.014328  -8.237717  -5.54266  4.709098  1.480307  2.64344  0.519367  0.086446  1.297539  -1.811343  0.421373  3.521083  -4.971961  1.055918  3.521083  -4.971961  1.055919  -24.742709  29.896557  -15.176205  122.681316  38.031672  -175.95106  60.00129  -2.231453  39.806949  85.606683  29.459745  -15.226909  1.151607  2.061192  21.89433  102.514998  41.142352  34.774058  -11.323304  -36.320128  -112.054226  55.972781  19.967409  15.757655  -2.815524  8.174874  3.093025  -2.149733  6.117278  2.353762  
0.0  93.25843  0.0  -0.855326  -17.982668  -90.986237  20.382777  -12.271941  4.021189  -2.078751  -3.19025  1.728592  6.290262  0.290164  2.253017  -16.133601  1.030027  -8.339181  -5.444732  4.727788  1.482308  2.658844  0.516407  0.08851  1.272319  -1.802828  0.477092  3.447926  -4.951207  1.210779  3.447926  -4.951207  1.210779  -24.525468  29.616817  -15.511847  122.483114  37.788939  -175.932505  60.076379  -2.348069  39.813178  85.675339  29.318318  -15.036891  1.4186  2.023574  21.616647  102.339787  41.090942  34.707034  -11.151071  -36.343221  -112.154732  55.809155  20.048901  15.606906  -2.643635  8.184382  2.918943  -2.01872  6.125991  2.221134  
0.0  93.25843  0.0  -0.85482  -18.321314  -91.034192  20.598288  -12.246899  4.073179  -2.007734  -3.09305  1.896425  6.230128  0.279  2.171804  -16.115388  0.998879  -8.4106  -5.39967  4.731842  1.479984  2.750339  0.520771  0.101334  1.257536  -1.797368  0.501237  3.405708  -4.937266  1.278259  3.405708  -4.937266  1.278259  -24.170623  29.457335  -15.57957  122.397681  37.478813  -176.121012  60.167047  -2.54619  39.787777  85.843994  29.034143  -15.128658  1.756102  1.953722  21.667464  101.987075  41.154708  34.509759  -10.649603  -36.44899  -112.397322  55.808538  20.229541  15.568243  -2.421564  8.193971  2.921594  -1.852523  6.134209  2.220148  
0.0  93.25843  0.0  -0.805699  -18.535576  -91.055628  20.741418  -12.201206  4.075498  -2.046598  -3.017429  2.006721  6.254612  0.2903  2.165139  -16.008497  1.0387  -8.461032  -5.336232  4.744534  1.480941  2.764462  0.525026  0.104014  1.28851  -1.792986  0.519153  3.489235  -4.926797  1.325194  3.489236  -4.926797  1.325194  -24.282402  29.323875  -15.700889  122.05189  37.202408  -176.278323  59.83293  -2.72222  39.758056  85.852015  28.826549  -15.503649  1.626069  1.894053  21.66492  101.893904  41.131291  34.442449  -10.596358  -36.502892  -112.446717  55.795277  20.299606  15.467908  -2.466775  8.210708  2.89319  -1.886057  6.146662  2.199547  
0.0  93.25843  0.0  -0.787117  -18.853374  -91.142333  21.182346  -12.18263  4.215802  -2.081777  -2.946991  2.107172  6.103185  0.265515  2.05733  -15.974468  1.024175  -8.498912  -5.403804  4.744437  1.451641  2.977406  0.548227  0.150944  1.346356  -1.794525  0.548417  3.645395  -4.933703  1.40087  3.645395  -4.933703  1.40087  -24.348218  29.19432  -15.782501  122.441192  36.951169  -176.319966  59.638831  -3.02235  39.882631  85.933388  28.441978  -16.224988  1.573174  1.848609  21.753604  101.530268  41.292743  34.284005  -10.327163  -36.514316  -112.533806  56.029708  20.445289  15.529903  -2.538282  8.23492  2.862589  -1.939278  6.164615  2.177684  
0.0  93.25843  0.0  -0.747829  -19.022607  -91.178609  21.398859  -12.18074  4.219325  -2.112514  -2.868377  2.229046  6.052538  0.262836  2.041637  -15.819057  1.058476  -8.514938  -5.354581  4.77314  1.47264  2.964453  0.560011  0.155081  1.381482  -1.795263  0.565773  3.740254  -4.937399  1.445692  3.740254  -4.937399  1.445693  -24.380653  29.051788  -15.790413  122.501789  36.807444  -176.156691  58.706456  -3.126765  39.950332  85.880951  28.068352  -16.952118  1.373685  1.792599  21.75449  101.504796  41.280065  34.258666  -10.494051  -36.41398  -112.433348  56.329745  20.427543  15.580114  -2.608091  8.261792  2.829335  -1.991198  6.184589  2.153829  
0.0  93.25843  0.0  -0.721527  -19.348362  -91.302031  21.75964  -12.197156  4.299461  -2.143118  -2.800596  2.360998  5.965029  0.243954  2.01652  -15.679996  1.071518  -8.520703  -5.428186  4.803797  1.473186  3.190426  0.58242  0.22641  1.431367  -1.801167  0.602391  3.873978  -4.956693  1.541831  3.873978  -4.956693  1.541831  -24.150518  28.940474  -15.737315  123.258659  36.665689  -175.828094  58.033368  -3.512262  40.219888  85.728942  27.517085  -17.615327  1.429302  1.744891  21.843163  101.230683  41.40988  34.199745  -10.473779  -36.269429  -112.36003  56.832905  20.515198  15.764063  -2.64344  8.299875  2.772019  -2.017026  6.213234  2.111531  
0.0  93.25843  0.0  -0.70759  -19.451099  -91.33793  21.953824  -12.258121  4.303661  -2.20516  -2.6973  2.482451  5.898164  0.229378  2.001211  -15.558315  1.074597  -8.528157  -5.389761  4.875445  1.542022  3.173249  0.589828  0.224845  1.441414  -1.812259  0.617919  3.900112  -4.988129  1.582939  3.900112  -4.988129  1.582939  -23.931159  28.798786  -15.640589  123.816138  36.598505  -175.335744  56.690061  -3.707108  40.372281  85.463752  26.826297  -18.044408  1.333737  1.715259  21.829377  101.137067  41.433765  34.175908  -10.672938  -36.052619  -112.160942  57.177679  20.428359  15.86799  -2.638065  8.346968  2.738479  -2.012718  6.24872  2.086512  
0.0  93.25843  0.0  -0.733059  -19.642588  -91.423475  21.84591  -12.349876  4.206157  -2.006878  -2.592655  2.765861  5.863064  0.218406  2.037613  -15.546212  1.026289  -8.52564  -5.437806  4.952227  1.594257  3.262362  0.592711  0.250506  1.448806  -1.832324  0.643175  3.918049  -5.044601  1.65036  3.918049  -5.044601  1.65036  -23.484892  28.730913  -15.493213  124.952387  36.574064  -174.742679  55.52071  -4.038378  40.653523  85.864  25.922214  -17.567554  1.471016  1.71132  21.884203  100.76107  41.601159  34.066604  -10.375845  -35.899433  -112.120933  57.619176  20.523601  16.1191  -2.586403  8.408194  2.694047  -1.973651  6.29505  2.052746  
0.0  93.25843  0.0  -0.73485  -19.71466  -91.447875  21.908547  -12.41023  4.185307  -1.97575  -2.493097  2.942095  5.785987  0.201069  2.031416  -15.513488  0.998532  -8.527784  -5.330569  5.043573  1.691738  3.258484  0.599739  0.246412  1.451405  -1.849192  0.656862  3.923781  -5.091556  1.686661  3.923781  -5.091556  1.686661  -23.132506  28.604191  -15.33779  125.889974  36.6229  -174.054293  53.894131  -4.276609  40.93885  85.487581  25.043077  -17.494477  1.436381  1.699814  21.853445  100.610759  41.654669  34.051898  -10.474685  -35.765274  -111.952465  57.725979  20.437201  16.160414  -2.554335  8.452297  2.667641  -1.949436  6.328374  2.032681  
0.0  93.25843  0.0  -0.792818  -19.825835  -91.500392  21.629379  -12.521981  4.009758  -1.853922  -2.387088  3.211057  5.80971  0.187448  2.128683  -15.577852  0.918397  -8.515051  -5.235533  5.11546  1.799263  3.33332  0.613602  0.257302  1.452799  -1.872683  0.676516  3.925591  -5.156926  1.739012  3.925591  -5.156926  1.739013  -22.572432  28.535006  -15.128162  127.210904  36.702687  -173.305486  52.35871  -4.457762  41.241423  85.543527  24.101281  -16.764772  1.389043  1.717303  21.762423  100.36338  41.757679  33.971939  -9.979206  -35.800695  -112.01355  57.983235  20.574736  16.36404  -2.53104  8.483878  2.630229  -1.931587  6.352311  2.004454  
0.0  93.25843  0.0  -0.79399  -19.865423  -91.540567  21.583943  -12.578077  3.929035  -1.788794  -2.276991  3.511296  5.739235  0.166929  2.124568  -15.626535  0.896907  -8.489438  -5.01209  5.203404  1.91335  3.338764  0.613019  0.259541  1.461799  -1.888415  0.689678  3.948876  -5.200912  1.773431  3.948876  -5.200912  1.77343  -22.20997  28.42711  -14.955599  128.446228  36.86544  -172.522112  50.658638  -4.65437  41.698338  85.148171  23.184298  -16.5361  1.338644  1.721387  21.754144  100.261506  41.804095  33.986229  -10.040587  -35.838837  -111.931058  58.056741  20.538322  16.402279  -2.533046  8.501528  2.625882  -1.933091  6.365558  2.001287  
0.0  93.25843  0.0  -0.845502  -19.89651  -91.593872  21.391458  -12.733555  3.75554  -1.787184  -2.110634  3.825535  5.746772  0.141532  2.203802  -15.807648  0.822529  -8.457534  -4.700346  5.299763  2.05788  3.456316  0.618577  0.280759  1.462549  -1.910047  0.694419  3.950101  -5.260313  1.785114  3.950101  -5.260313  1.785114  -21.602556  28.431495  -14.64628  129.835242  37.059073  -171.757218  48.915892  -4.742609  42.135  84.949912  22.498957  -15.867836  1.162528  1.74342  21.688015  100.064909  41.876478  33.949872  -9.67982  -35.91283  -111.977332  58.175492  20.590312  16.430426  -2.533031  8.504532  2.654557  -1.933492  6.367695  2.022764  
